# xmcd
#
# Track frame offsets:
#	150
#	18411
#	34598
#	48767
#	64353
#	80085
#	96316
#	110038
#	127114
#	145763
#	163822
#	181186
#	196570
#	212402
#	232426
#	249985
#	266736
#
# Disc length: 3756 seconds
#
# Revision: 1
# Processed by: cddbd v1.4PL0 Copyright (c) Steve Scherf et al.
# Submitted via: EasyCDDAExtractor 4.6.9.1
#
DISCID=f40eaa11
DTITLE=стекиос яоййос - бглата
DYEAR=2001
DGENRE=еккгмийа
TTITLE0=тыяа еилаи емтанеи
TTITLE1=ажоу тгм ацапас
TTITLE2=пес пыс глоум омеияо
TTITLE3=ема бгла ап' том цйяело
TTITLE4=ма лгм ле ьанеис то пяыз
TTITLE5=ти ма лоу поуме окои аутои
TTITLE6=пома ле
TTITLE7=бглата
TTITLE8=ока ха акканоуме
TTITLE9=та вы лафи соу
TTITLE10=ха пы циа сема
TTITLE11=г ацйакитса соу
TTITLE12=аккг ацапг
TTITLE13=елаха ма жеуцы
TTITLE14=ха 'хека ма глоум
TTITLE15=лиа цяатсоумиа
TTITLE16=акгтисса ьувг
EXTD=
EXTT0=
EXTT1=
EXTT2=
EXTT3=
EXTT4=
EXTT5=
EXTT6=
EXTT7=
EXTT8=
EXTT9=
EXTT10=
EXTT11=
EXTT12=
EXTT13=
EXTT14=
EXTT15=
EXTT16=
PLAYORDER=
